<svg id="Camada_1" data-name="Camada 1" xmlns="http://www.w3.org/2000/svg" viewBox="0 0 1024 1024">
  <g>
    <path d="M452.61,417.33C365.14,358.44,336,261.23,363.08,176.19c28.53-89.73,108.73-148.63,201.06-149,92.86-.38,173.2,57.63,202.71,148.12,27.22,83.48.14,181.56-89,242H723c24.77,0,37.58,12.73,37.61,37.34,0,19.63.1,39.27,0,58.9s-14.14,33.59-34,33.79c-8.47.09-17,.23-25.43-.07-4.37-.16-5.81,1.08-5.78,5.63.43,74.94,4.29,149.37,32.84,220.1,4.52,11.21,10.09,22,15.52,33.73h-357c5.37-11.93,11.15-23.65,16-35.74,19.5-48.5,27.59-99.33,30-151.21,1-21.29,1.08-42.63,2.2-63.91.39-7.4-2.06-9.19-9-8.66a236.6,236.6,0,0,1-24.41.1c-17.31-.49-31.56-14.5-31.81-31.82q-.48-33,0-66c.22-17.84,14.52-31.85,32.54-32.12C418.14,417.14,434,417.33,452.61,417.33Z" style="fill: #020303"/>
    <path d="M872.3,999.8c-6.45,2.27-13.08,2.82-19.93,2.81q-287.22-.12-574.47,0c-6.84,0-13.47-.54-19.93-2.82-13.25-8.13-19.27-19.7-18.72-35.46.67-19.27.07-38.58.19-57.86.12-19.81,14-33.93,33.81-33.94q291.9-.09,583.78,0c19.77,0,33.69,14.13,33.81,33.94.12,19.29-.48,38.59.19,57.86C891.58,980.1,885.55,991.66,872.3,999.8Z" style="fill: #020303"/>
  </g>
</svg>
