<svg id="Camada_1" data-name="Camada 1" xmlns="http://www.w3.org/2000/svg" viewBox="0 0 1024 1024">
  <path d="M533.77,198.65v-2h81.81c0,.68,0,1.35,0,2l-2-.46-1.16-.48H537l-1.16.48Z" style="fill: #fff"/>
  <path d="M320.24,196.62l-1,1C319,196.76,319.38,196.43,320.24,196.62Z" style="fill: #fff"/>
  <path d="M831.09,197.62c-.33-.33-.67-.66-1-1C831,196.43,831.28,196.76,831.09,197.62Z" style="fill: #fff"/>
  <path d="M830.09,708.47l1-1C831.28,708.33,831,708.67,830.09,708.47Z" style="fill: #fff"/>
  <path d="M537,197.71l-1.16.48Z" style="fill: #f7f6f6"/>
  <path d="M613.53,198.19l-1.16-.48Z" style="fill: #f7f6f6"/>
  <path d="M218.77,258.09l-1,1C217.57,258.23,217.91,257.9,218.77,258.09Z" style="fill: #fff"/>
  <path d="M217.77,768.9c.33.33.66.67,1,1C217.91,770.09,217.57,769.76,217.77,768.9Z" style="fill: #fff"/>
  <path d="M457.06,611.38c0-.79.07-1.57.11-2.35a28.91,28.91,0,0,0,9.79,1.38q141-.06,282.08,0a28.91,28.91,0,0,0,9.79-1.38c0,.78.07,1.56.11,2.35Z" style="fill: #fff"/>
  <path d="M352.09,610.38l1,1C352.23,611.57,351.9,611.24,352.09,610.38Z" style="fill: #fff"/>
  <path d="M862.91,611.38l1-1C864.1,611.24,863.77,611.57,862.91,611.38Z" style="fill: #fff"/>
  <g>
    <path d="M399.47,414.43C312,355.54,282.9,258.33,309.94,173.29,338.47,83.56,418.67,24.66,511,24.29c92.86-.38,173.2,57.63,202.71,148.12,27.22,83.48.14,181.56-89,242h45.12c24.77,0,37.58,12.73,37.61,37.34,0,19.63.1,39.27,0,58.9s-14.14,33.59-34,33.79c-8.47.09-17,.23-25.43-.07-4.37-.16-5.81,1.08-5.78,5.63.43,74.94,4.29,149.37,32.84,220.1,4.52,11.21,10.09,22,15.52,33.73H333.62c5.37-11.93,11.15-23.65,16-35.74,19.5-48.5,27.59-99.33,30-151.21,1-21.29,1.08-42.63,2.2-63.91.39-7.4-2.06-9.19-9-8.66a236.55,236.55,0,0,1-24.41.1c-17.31-.49-31.56-14.5-31.81-31.82q-.48-33,0-66c.22-17.84,14.52-31.85,32.54-32.12C365,414.24,380.85,414.43,399.47,414.43Z" style="fill: #020202"/>
    <path d="M819.16,996.9c-6.45,2.27-13.08,2.82-19.93,2.81q-287.23-.12-574.47,0c-6.84,0-13.47-.54-19.93-2.82-13.25-8.13-19.27-19.7-18.72-35.46.67-19.27.07-38.58.19-57.86.12-19.81,14-33.93,33.81-33.94q291.89-.09,583.78,0c19.77,0,33.69,14.13,33.81,33.94.12,19.29-.48,38.59.19,57.86C838.44,977.2,832.41,988.76,819.16,996.9Z" style="fill: #020202"/>
  </g>
</svg>
