<svg id="Camada_1" data-name="Camada 1" xmlns="http://www.w3.org/2000/svg" viewBox="0 0 1024 1024">
  <g>
    <g>
      <polygon points="343.85 646.3 485.5 571.83 485.5 718.57 538.5 718.57 538.5 571.83 680.15 646.3 648.03 459.06 784.07 326.47 596.07 299.15 512 128.79 427.92 299.15 239.93 326.47 375.96 459.06 343.85 646.3" style="fill: #ffda45"/>
      <g>
        <polygon points="410.74 381.97 480.71 371.8 512 308.4 543.29 371.8 613.26 381.97 562.63 431.32 574.58 501 512 468.1 449.42 501 461.37 431.32 410.74 381.97" style="fill: #f49723"/>
        <polygon points="662.14 842.22 662.14 692.08 361.86 692.08 361.86 842.22 308.87 842.22 308.87 895.21 715.13 895.21 715.13 842.22 662.14 842.22" style="fill: #f49723"/>
      </g>
      <rect x="308.87" y="842.21" width="406.26" height="52.99" style="fill: #a31921"/>
      <rect x="459.01" y="789.22" width="105.98" height="52.99" style="fill: #ffda45"/>
    </g>
    <g>
      <polygon points="87.4 746.52 172.02 702.03 172.02 789.69 203.67 789.69 203.67 702.03 288.29 746.52 269.11 634.67 350.37 555.46 238.07 539.14 187.84 437.37 137.62 539.14 25.32 555.46 106.58 634.67 87.4 746.52" style="fill: #ffda45"/>
      <g>
        <polygon points="127.35 588.61 169.15 582.54 187.84 544.66 206.54 582.54 248.33 588.61 218.09 618.09 225.23 659.72 187.84 640.07 150.46 659.72 157.6 618.09 127.35 588.61" style="fill: #f49723"/>
        <polygon points="277.53 863.55 277.53 773.86 98.16 773.86 98.16 863.55 66.5 863.55 66.5 895.21 309.19 895.21 309.19 863.55 277.53 863.55" style="fill: #f49723"/>
      </g>
      <rect x="66.5" y="863.55" width="242.69" height="31.65" style="fill: #a31921"/>
      <rect x="156.19" y="831.89" width="63.31" height="31.65" style="fill: #ffda45"/>
    </g>
    <g>
      <polygon points="735.72 746.5 820.34 702.01 820.34 789.67 851.99 789.67 851.99 702.01 936.61 746.5 917.43 634.65 998.69 555.43 886.39 539.12 836.16 437.35 785.94 539.12 673.64 555.43 754.9 634.65 735.72 746.5" style="fill: #ffda45"/>
      <g>
        <polygon points="775.67 588.59 817.47 582.51 836.16 544.64 854.86 582.51 896.65 588.59 866.41 618.07 873.55 659.7 836.16 640.04 798.78 659.7 805.92 618.07 775.67 588.59" style="fill: #f49723"/>
        <polygon points="925.85 863.53 925.85 773.84 746.48 773.84 746.48 863.53 714.82 863.53 714.82 895.18 957.51 895.18 957.51 863.53 925.85 863.53" style="fill: #f49723"/>
      </g>
      <rect x="714.82" y="863.52" width="242.69" height="31.65" style="fill: #a31921"/>
      <rect x="804.51" y="831.87" width="63.31" height="31.65" style="fill: #ffda45"/>
    </g>
  </g>
</svg>
