<svg id="Camada_1" data-name="Camada 1" xmlns="http://www.w3.org/2000/svg" viewBox="0 0 1024 1024">
  <path d="M533.77,198.65v-2h81.81c0,.68,0,1.35,0,2l-2-.46-1.16-.48H537l-1.16.48Z" style="fill: #fff"/>
  <path d="M320.24,196.62l-1,1C319,196.76,319.38,196.43,320.24,196.62Z" style="fill: #fff"/>
  <path d="M831.09,197.62c-.33-.33-.67-.66-1-1C831,196.43,831.28,196.76,831.09,197.62Z" style="fill: #fff"/>
  <path d="M830.09,708.47l1-1C831.28,708.33,831,708.67,830.09,708.47Z" style="fill: #fff"/>
  <g>
    <path d="M230,999.71c-17.57-7.67-24.24-21.11-23.08-40.07,1-16.76.11-33.63.25-50.45.14-18,13.22-31.37,31.12-31.38q273.72-.1,547.44,0c17.9,0,31,13.38,31.12,31.38.14,16.82-.78,33.69.25,50.45,1.16,19-5.51,32.4-23.08,40.07Z" style="fill: #fff"/>
    <path d="M586.23,25.21l3.87.87c18.31,6.85,32.19,18.51,39.64,37,12.17,30.1-2.75,64.68-33.16,77.05-2.6,1.06-5.31,1.87-8.89,3.12,15.57,14.72,30.4,29.4,44.27,45,34.27,38.64,61.81,81.88,87.69,126.34,3.42,5.87-.36,7.89-3.34,10.88q-73,73.11-146.08,146.19-24.9,24.93-49.72,50c-11.2,11.32-11.13,17.51,0,28.91,5.11,5.22,10.17,10.47,15.37,15.6,9.56,9.41,16.84,9.3,26.89-.75q66-66,131.83-132.15c18.35-18.39,36.81-36.67,56.32-56.09,6.61,16.18,13.26,31.36,19,46.85,19.53,52.27,33.62,105.76,31.35,162.13-1.5,37.25-8.88,73-34,102.67-17.3,20.43-39.42,33.7-64.46,42.12-6.71,2.26-8.24,5.57-8.12,12.08.38,22.22-.08,44.45.3,66.67.1,5.9-1.43,7.31-7.32,7.3q-175.71-.28-351.44,0c-5.72,0-7.52-1.15-7.41-7.21.42-21.9-.11-43.81.32-65.71.14-7.17-1.3-10.76-8.94-13.43-35.37-12.32-64.09-33.24-80.64-68-11.63-24.39-16.39-50.56-17.09-77.38-1.6-61,13.92-118.56,36.13-174.6,33.08-83.47,78-159.91,137.5-227.43,12.32-14,25.9-26.87,38.81-40.17-30.2-12.23-45.11-31.62-44.94-58.71.15-24.41,16-46.8,39.69-56.26,1.42-.56,2.76-1.31,4.14-2l3.88-.87,2.22-.92H584Z" style="fill: #fff"/>
  </g>
  <path d="M537,197.71l-1.16.48Z" style="fill: #f7f6f6"/>
  <path d="M613.53,198.19l-1.16-.48Z" style="fill: #f7f6f6"/>
</svg>
