<svg id="Camada_1" data-name="Camada 1" xmlns="http://www.w3.org/2000/svg" viewBox="0 0 1024 1024">
  <path d="M533.77,198.65v-2h81.81c0,.68,0,1.35,0,2l-2-.46-1.16-.48H537l-1.16.48Z" style="fill: #fff"/>
  <path d="M320.24,196.62l-1,1C319,196.76,319.38,196.43,320.24,196.62Z" style="fill: #fff"/>
  <path d="M831.09,197.62c-.33-.33-.67-.66-1-1C831,196.43,831.28,196.76,831.09,197.62Z" style="fill: #fff"/>
  <path d="M830.09,708.47l1-1C831.28,708.33,831,708.67,830.09,708.47Z" style="fill: #fff"/>
  <path d="M537,197.71l-1.16.48Z" style="fill: #f7f6f6"/>
  <path d="M613.53,198.19l-1.16-.48Z" style="fill: #f7f6f6"/>
  <path d="M218.77,258.09l-1,1C217.57,258.23,217.91,257.9,218.77,258.09Z" style="fill: #fff"/>
  <path d="M217.77,768.9c.33.33.66.67,1,1C217.91,770.09,217.57,769.76,217.77,768.9Z" style="fill: #fff"/>
  <g>
    <path d="M147.79,998.54c-18.66-8.17-25.81-22.47-24.5-42.64,1.08-16.48.21-33.08.22-49.62,0-24.71,12.65-37.47,37.14-37.48H766.29q49.53,0,99.08,0c21.65,0,35,13.59,35.11,35.43,0,17.22-.85,34.5.23,51.65,1.28,20.17-5.84,34.47-24.5,42.64Z" style="fill: #020202"/>
    <path d="M447.25,382.48c-17.71,8.8-34.68,16-50.37,25.79-9.26,5.76-15.2,14.29-18.42,24.56-6.34,20.23-12.64,40.48-18.46,60.87-6.91,24.23-22.34,40.18-45.56,49.05q-8.49,3.24-16.9,6.66c-18.74,7.64-37.29,7.3-55.79-1C216,536.93,190,525.87,164.31,514c-27-12.49-40.9-33.68-40.85-63.95.15-88.17.46-176.35-.24-264.51-.17-21.21,5.55-38.73,21.93-51.78,9.74-7.76,10.33-14.55,3.95-25-8-13.16-14.36-27.43-20.94-41.45-11.51-24.52-.56-41.8,26.26-41.81q146.18,0,292.35,0C628.22,25.8,784,149.8,825.57,326.69c7.13,30.4,9.84,61.26,9.88,92.34.18,125,0,250,.32,375,0,9-2.86,10.1-10.75,10.09q-313.59-.32-627.19,0c-8,0-9.71-2.14-9.79-9.9-.34-30.65,1.92-60.65,15.8-88.71,17.36-35.08,43.46-61.15,78.63-78.43,36.27-17.81,72.27-36.13,108.29-54.44,37.58-19.1,55.79-50.45,56.4-92.16C447.63,448.41,447.25,416.32,447.25,382.48ZM269.12,260.54a40.39,40.39,0,1,0-40.28,40.59A40.57,40.57,0,0,0,269.12,260.54Z" style="fill: #020202"/>
  </g>
</svg>
