<svg id="Camada_1" data-name="Camada 1" xmlns="http://www.w3.org/2000/svg" viewBox="0 0 1024 1024">
  <path d="M366.9,789,221.42,868.31a130.28,130.28,0,0,0-23.35,16.61,487.26,487.26,0,0,0,626.08,1.62,129.32,129.32,0,0,0-25.65-17.19L642.71,791.47a59.42,59.42,0,0,1-32.84-53.14V677.21a235.22,235.22,0,0,0,14.73-19A358.2,358.2,0,0,0,673,560.67a48.94,48.94,0,0,0,34.7-46.55V448.87a48.67,48.67,0,0,0-16.3-36.15V318.4S710.81,171.63,512,171.63,332.64,318.4,332.64,318.4v94.32a48.64,48.64,0,0,0-16.3,36.15v65.25a48.89,48.89,0,0,0,22.56,41c16.3,71,59,122.05,59,122.05v59.61A59.5,59.5,0,0,1,366.9,789Z" style="fill: #a4a4a4;stroke: #1d1d1b;stroke-miterlimit: 10;stroke-width: 10px"/>
  <path d="M520.35,24.49C251.11,19.89,29.1,234.42,24.5,503.66,21.89,656.33,89.93,793.53,198.27,884.77a129.39,129.39,0,0,1,23.13-16.45L366.88,789a59.45,59.45,0,0,0,31-52.17V677.19s-42.71-51.08-59-122a48.93,48.93,0,0,1-22.56-41V448.85a48.73,48.73,0,0,1,16.3-36.15V318.38S313.23,171.61,512,171.61,691.39,318.38,691.39,318.38V412.7a48.63,48.63,0,0,1,16.31,36.15V514.1A48.94,48.94,0,0,1,673,560.65a358.77,358.77,0,0,1-48.43,97.59,237.39,237.39,0,0,1-14.74,19v61.12a59.38,59.38,0,0,0,32.84,53.14l155.79,77.89A130.06,130.06,0,0,1,824,886.48C929.1,798.87,997,667.86,999.49,520.33,1004.13,251.09,789.61,29.09,520.35,24.49Z" style="stroke: #1d1d1b;stroke-miterlimit: 10;stroke-width: 10px"/>
</svg>
