<svg id="Camada_1" data-name="Camada 1" xmlns="http://www.w3.org/2000/svg" viewBox="0 0 1024 1024">
  <g>
    <path d="M563.1,25c7,4.84,9.83,11.3,9.65,20-.46,21.54,0,43.11-.28,64.66-.08,5.46,1.56,6.82,6.85,6.75,22.14-.28,44.3-.19,66.45-.09,12.7.06,17.9,5.22,17.94,17.86q.15,43.28,0,86.54c-.06,12-5.41,17.22-17.54,17.29-22.15.12-44.31.27-66.45-.12-6-.11-7.34,1.52-7.26,7.34.34,25.36.42,50.73,0,76.08-.12,6.8,1.79,8.22,8.33,8.2q147.15-.33,294.29-.12c36.86,0,63.72,28.52,62.15,65.37-.28,6.44-2.37,12.43-4.39,18.39Q865.63,611.32,798.41,809.45c-1.74,5.15-4.1,7.08-9.85,7.07q-276.72-.27-553.45,0c-5.75,0-8.11-1.92-9.85-7.07Q158.15,611.29,90.84,413.17c-15.15-44.69,13.2-83.77,60.64-83.79q145.25,0,290.49.16c7.26,0,9.46-1.57,9.3-9.16-.53-25-.39-50.09,0-75.13.08-5.82-1.31-7.45-7.26-7.34-21.82.39-43.66.21-65.5.13C365.14,238,360,233,360,219.79q-.13-42.79,0-85.59c0-12.64,5.24-17.8,17.94-17.86,22.15-.1,44.31-.19,66.45.09,5.29.07,6.93-1.29,6.85-6.75-.31-21.55.18-43.12-.28-64.66-.18-8.73,2.64-15.18,9.65-20Z" style="fill: #fff"/>
    <path d="M170,999c-17.5-7.67-24.22-21.09-23-40,1-15.46.2-31,.21-46.57,0-23.19,11.87-35.16,34.85-35.17H751.42q46,0,92,0c20.32,0,32.89,12.75,32.95,33.25.05,16.16-.8,32.37.22,48.47,1.2,18.92-5.49,32.34-23,40Z" style="fill: #fff"/>
  </g>
  <path d="M761.09,124.05c-.33-.33-.67-.66-1-1C761,122.86,761.28,123.19,761.09,124.05Z" style="fill: #fff"/>
  <path d="M760.09,635c.33-.34.67-.67,1-1C761.28,634.81,761,635.14,760.09,635Z" style="fill: #fff"/>
</svg>
