<svg id="Camada_1" data-name="Camada 1" xmlns="http://www.w3.org/2000/svg" viewBox="0 0 1024 1024">
  <g>
    <path d="M511.38,804.35c-91.75,0-183.51-.1-275.26.17-8.61,0-11.27-.71-9.4-10.78,9.3-50.17,15.12-100.82,19.55-151.68,4.47-51.31,4.86-102.73,5.9-154.16.13-6.23-1.56-9.58-7.32-12.41-38.39-18.81-76.52-38.16-114.93-56.94-6-2.94-8-6.22-8-13q.36-172.67.19-345.31c0-22.53,13.37-35.88,35.9-35.91q53.84-.06,107.66,0c22.33,0,35.13,12.89,35.18,35.28.06,28.44.25,56.88-.15,85.31-.1,7.12,1,9.82,9.1,9.63,26.39-.63,52.81-.5,79.22-.06,7.21.12,9.75-1.15,9.58-9.15-.58-28.43-.26-56.87-.21-85.31,0-22.46,13.41-35.69,36.1-35.71q77.7,0,155.4,0c22.6,0,36,13.32,36,35.82,0,28.77.17,57.55-.11,86.32-.06,5.88.89,8.14,7.56,8,27.42-.44,54.85-.49,82.26,0,7.3.14,8-2.67,7.93-8.68-.26-28.78-.16-57.55-.1-86.33C723.44,37.75,737,24.38,759,24.36q53.84-.08,107.67,0c21.91,0,35.45,13.49,35.46,35.32q0,173.16.16,346.32c0,6.23-1.71,9.56-7.46,12.37-38.4,18.8-76.53,38.14-114.93,56.94-6,2.94-7.94,6.27-7.9,13,.45,73.81,3.45,147.48,12.58,220.77,3.59,28.78,8.29,57.45,13.25,86,1.4,8.07-.45,9.39-8.15,9.37C696.91,804.25,604.15,804.35,511.38,804.35ZM447.1,538.71c0,21.32.06,42.65-.06,64,0,4.1-.11,6.84,5.62,6.8q59.41-.37,118.82,0c4.41,0,5.75-1.18,5.73-5.67-.24-43,.08-86-.49-129a56.75,56.75,0,0,0-18.86-41.51c-20.13-18.2-44.05-25.17-70.31-13.73-26.45,11.52-39.76,32.53-40.37,61.26C446.76,500.11,447.1,519.41,447.1,538.71Z" style="fill: #fff"/>
    <path d="M511,999.32c-116.75,0-233.5-.42-350.24.36-22.55.15-40.6-14.81-39-39.54,1.24-18.86.15-37.88.27-56.83.12-19.81,14-33.92,33.76-33.92q356.32-.09,712.66,0c19.69,0,33.5,14.17,33.61,34.07s.06,39.93,0,59.89c0,22.61-13.29,35.95-35.81,35.95Q688.67,999.35,511,999.32Z" style="fill: #fff"/>
  </g>
</svg>
