<svg id="Camada_1" data-name="Camada 1" xmlns="http://www.w3.org/2000/svg" viewBox="0 0 1024 1024">
  <g>
    <path d="M999.43,391.92v17.14c-.65.6-1.54,1.09-1.9,1.83q-96.12,198.3-191.95,396.74c-3.46,7.17-7.44,9-14.93,9q-278.37-.3-556.73,0c-7.94,0-12-1.89-15.65-9.44Q160.9,687.76,102.68,568.66q-38-78-76.08-156a51.91,51.91,0,0,1-1.66-20.07c3.58-7.91,8.37-14.71,16.23-19.06,18-10,35.83-20.25,53.9-30.1,12.42-6.77,27.55-3.7,37,6.95,2.73,3.08,5.37,6.25,8.17,9.27,21.24,22.94,47.39,33.27,78.51,29.4,47.46-5.89,79.2-48.68,80.05-94.29.3-16.41,10.74-26.47,27.07-26.57,19-.12,38.06,0,57.1,0,31.52,0,33.36,1.3,43.38,30.75,18.92,55.56,88.54,78.11,136.87,44.74,19.85-13.7,31-32.64,38-55.06,4.66-15,11.71-20.24,26-20.37q36.16-.32,72.33,0c14.17.13,24.52,10.22,25.66,24.15.49,6,1,12,1.8,18,6,46.19,47.3,81.7,92.81,79.4,27.32-1.38,49.9-12.87,67.46-34,14.82-17.8,27.94-20.23,48.17-8.86,13,7.3,25.67,15.11,38.93,21.82C985.13,374.19,993.87,381.19,999.43,391.92Z" style="fill: #020202"/>
    <path d="M169.3,999.28c-17.56-7.68-24.29-21.11-23.05-40,1-15.48.19-31.07.21-46.61,0-23.2,11.9-35.19,35-35.19H816.05c9.84,0,19.67-.07,29.5,0,19.12.16,31.91,13.1,32,32.41.08,16.17-.84,32.41.24,48.51,1.28,19.19-5.08,33.08-23.07,40.92Z" style="fill: #020202"/>
    <path d="M497.66,24.72h28.71c1.83,1.34,3.76,2,5.92.78l3.76,1c21.1,6.58,39.67,16.8,55.05,33.36,41.54,44.72,34.72,118.51-13.9,155.57C511.48,265.52,417,226.65,405.79,143,399.63,97,430,47.18,474,31.59c4.71-1.67,9.38-3.45,14.07-5.18l3.73-.9C493.92,26.69,495.83,26,497.66,24.72Z" style="fill: #020202"/>
  </g>
</svg>
