<svg id="Camada_1" data-name="Camada 1" xmlns="http://www.w3.org/2000/svg" viewBox="0 0 1024 1024">
  <g>
    <path d="M27.92,916.22c6.51-12.33,18.36-17.65,30-23.33,9.35-4.55,21.28-7.21,27.11-14.61,6-7.58,1.39-20.07,1.84-30.4.74-16.71,13.73-30,30.57-30q152.06-.17,304.12,0c17.3,0,30.35,13.46,30.72,30.78v1c.09,9.51-3.24,21.32,1.19,27.9,4.93,7.35,16.89,10,25.84,14.62,5.34,2.74,10.95,5,16.12,8,11.06,6.49,17.94,15.7,17.77,29.21-.13,10.14-.75,20.36.13,30.43,1.69,19.18-5,33.07-23,40.9H48.92c-11-5.19-21.36-12.13-22.16-24.83C25.52,956,24.22,936,27.92,916.22Z" style="fill: #030304"/>
    <path d="M596.92,1000.67c-17.55-7.67-24.58-21.12-23-40,.82-9.77.4-19.67.08-29.49-.5-15.11,6.74-25.24,19.67-31.86,11.8-6,23.58-12.16,35.61-17.7,4.47-2.06,6-4.54,5.78-9.33-.39-7.91-.23-15.86-.08-23.79.34-17.3,13.52-30.57,30.9-30.6q121.22-.15,242.44,0c17.87,0,30.8,13.38,31.11,31.37.18,9.77-2.92,21.77,1.63,28.68,4.83,7.34,16.84,10.16,26,14.39,13.79,6.39,27.18,13,33.29,28.38v57.15a42.27,42.27,0,0,1-22.84,22.85Z" style="fill: #030304"/>
    <path d="M249.18,25.61c15,.61,30.2-2.61,45,2.15,4.45,4.93,6.24,10.58,6,17.33-.41,11.09.37,22.24-.29,33.31-.41,7,2.09,8.37,8.48,8.08,11.71-.53,23.46-.27,35.19-.12,12.06.16,17.2,5.38,17.38,17.53.12,8.25.08,16.5,0,24.75-.11,13.42-5,18.51-18.21,18.63-11.73.1-23.46.25-35.18-.09-5.29-.15-7.9.45-7.67,6.94.55,15.85.44,31.74,0,47.6-.14,5.65,1.86,6.66,7,6.63,32.34-.22,64.68-.14,97-.1,27.28,0,41,19.61,31.47,45.25q-29.72,80-59.78,159.87c-.88,2.34-1.71,4.7-3,8.22,6.56,0,12.4-.08,18.23,0,17.41.3,30.67,13.32,31,30.57q.27,15.21,0,30.46A30.71,30.71,0,0,1,391.57,513c-6.65.17-13.42.77-19.95-.14-9.81-1.36-10.94,2.74-10.62,11.45,2.1,57.72,7.25,115.12,17.24,172,3.53,20.11,8.69,39.93,13.19,60.26H147.92c6.85-31,13.67-61.75,18.28-92.92,7.12-48.06,10.14-96.42,12.1-144.89.18-4.65-1.15-6-5.72-5.83-8.23.34-16.49.23-24.73.06a30.67,30.67,0,0,1-30.39-30.17c-.22-9.83-.12-19.68,0-29.51.19-18.53,13.22-31.51,31.76-31.71,5.39-.06,10.77,0,17.49,0-6.13-16.47-12-32.27-17.9-48.05-15.07-40.26-30.29-80.46-45.19-120.78-7.44-20.12,1.47-39,20.29-43.61,3.63-.9,7.54-.86,11.32-.87,31.71-.07,63.42-.34,95.11.17,7.8.13,9.31-2.35,9-9.45-.53-14.58-.58-29.21,0-43.78.28-7-2.09-8.37-8.49-8.08-11.7.52-23.45.26-35.18.11-12-.14-17.2-5.39-17.38-17.51q-.19-12.85,0-25.71c.18-12.5,5.4-17.58,18.18-17.68,12.05-.09,24.11-.32,36.14.11,5.6.21,6.84-1.75,6.67-7-.38-11.1.21-22.22-.22-33.32C238.73,37.28,240.44,29.89,249.18,25.61Z" style="fill: #030304"/>
    <path d="M786.41,756.89c-37.1,0-74.2-.19-111.29.17-6.83.07-8.29-1.8-8-8.4,2.09-45.32,3.56-90.68,5.76-136,.42-8.67-1.31-14.66-8.63-20.13-12.67-9.46-24.41-20.18-36.52-30.39-16.09-13.56-23.33-31-23.24-51.91.14-34.28,0-68.56,0-102.84,0-12.87,3.42-16.19,16.43-16.23,14,0,27.91-.09,41.86,0,10.92.08,14.82,3.82,15,14.92.26,12.69.32,25.4,0,38.08-.16,5.77.79,8.5,7.54,8.1,10.74-.64,21.56-.46,32.33-.05,5.32.2,7-1.31,6.85-6.77-.39-13.32-.24-26.66-.09-40,.12-10.43,4-14.25,14.53-14.28q48-.15,96.07,0c11.1,0,14.84,3.81,14.93,14.85.11,13,.4,26-.14,39-.25,6.16,1.79,7.42,7.45,7.18,10.45-.46,20.94-.46,31.38,0,6,.26,8.27-1.14,8-7.66-.56-12.35-.28-24.75-.12-37.13.17-12.63,4-16.25,16.69-16.28,14.27,0,28.54-.14,42.8,0,9.88.13,13.81,4.05,13.84,14,.1,36.5.27,73-.09,109.5-.16,16.82-6.14,31.76-18.85,43.16-13.91,12.48-28.09,24.69-42.61,36.45-5.24,4.24-7.16,8.47-6.85,15.2,2.14,46.28,3.66,92.58,5.88,138.85.36,7.44-1.78,8.75-8.69,8.69C861.24,756.66,823.82,756.89,786.41,756.89Zm31.25-125.58h0c0-9.17.29-18.36-.07-27.53-.65-16.68-14.67-30-30.83-29.73a30.7,30.7,0,0,0-29.84,29.71c-.41,18.66,0,37.34-.23,56-.07,4.68,1.45,5.8,5.9,5.74q24.64-.36,49.32,0c4.46.07,6-1.08,5.88-5.75-.37-9.48-.13-19-.13-28.48Z" style="fill: #030304"/>
  </g>
</svg>
